<svg width="32" height="32" viewBox="0 0 32 32" fill="currentColor" xmlns="http://www.w3.org/2000/svg">
    <path fill-rule="evenodd" clip-rule="evenodd" d="M16 27.0001C15.7347 27.0001 15.4804 26.8947 15.2929 26.7072C15.1053 26.5197 15 26.2653 15 26.0001V8.41343L7.70662 15.7068C7.51706 15.8834 7.26633 15.9796 7.00726 15.975C6.74819 15.9704 6.50101 15.8655 6.3178 15.6823C6.13458 15.499 6.02963 15.2519 6.02506 14.9928C6.02049 14.7337 6.11665 14.483 6.29329 14.2934L15.2933 5.29343C15.4808 5.10616 15.735 5.00098 16 5.00098C16.265 5.00098 16.5191 5.10616 16.7066 5.29343L25.7066 14.2934C25.8049 14.385 25.8837 14.4954 25.9383 14.618C25.993 14.7407 26.0224 14.8731 26.0247 15.0074C26.0271 15.1417 26.0024 15.275 25.9521 15.3996C25.9018 15.5241 25.827 15.6372 25.732 15.7321C25.637 15.8271 25.5239 15.902 25.3994 15.9523C25.2749 16.0026 25.1415 16.0273 25.0073 16.0249C24.873 16.0225 24.7406 15.9931 24.6179 15.9385C24.4952 15.8838 24.3848 15.805 24.2933 15.7068L17 8.41343V26.0001C17 26.2653 16.8946 26.5197 16.7071 26.7072C16.5195 26.8947 16.2652 27.0001 16 27.0001Z" />
</svg>