<svg width="32" height="32" viewBox="0 0 32 32" fill="currentColor" xmlns="http://www.w3.org/2000/svg">
    <path d="M27 16C27 13.0826 25.8411 10.2848 23.7782 8.22187C21.7152 6.15896 18.9173 5 15.9999 5C13.4177 5.00002 10.9293 5.90803 8.96113 7.54703L24.4528 23.0387C26.0919 21.0706 27 18.5822 27 16ZM4.99988 16C4.99988 18.9174 6.15884 21.7154 8.22175 23.7783C10.2846 25.8412 13.0825 27.0001 15.9999 27.0002C18.582 27.0002 21.0704 26.092 23.0386 24.453L7.54691 8.96125C5.90791 10.9294 4.9999 13.4179 4.99988 16ZM29 16C29 19.4478 27.6304 22.7545 25.1924 25.1925C22.7544 27.6305 19.4477 29.0002 15.9999 29.0002C12.5521 29.0001 9.2455 27.6305 6.80753 25.1925C4.36955 22.7545 2.99988 19.4478 2.99988 16C2.9999 12.5522 4.36956 9.24563 6.80753 6.80766C9.2455 4.36969 12.5521 3.00002 15.9999 3C19.4477 3 22.7544 4.36967 25.1924 6.80766C27.6303 9.24563 29 12.5522 29 16Z" />
</svg>