<svg width="32" height="32" viewBox="0 0 32 32" fill="currentColor" xmlns="http://www.w3.org/2000/svg">
    <path fill-rule="evenodd" clip-rule="evenodd" d="M16 3C16.2652 3 16.5196 3.10536 16.7071 3.29289C16.8946 3.48043 17 3.73478 17 4V19.5867L21.2933 15.2933C21.3849 15.1951 21.4953 15.1163 21.6179 15.0616C21.7406 15.007 21.873 14.9776 22.0073 14.9752C22.1416 14.9728 22.2749 14.9975 22.3995 15.0478C22.524 15.0981 22.6371 15.173 22.7321 15.2679C22.827 15.3629 22.9019 15.476 22.9522 15.6005C23.0025 15.7251 23.0272 15.8584 23.0248 15.9927C23.0224 16.127 22.993 16.2594 22.9384 16.3821C22.8837 16.5047 22.8049 16.6151 22.7067 16.7067L16.7067 22.7067C16.5192 22.8939 16.265 22.9991 16 22.9991C15.735 22.9991 15.4808 22.8939 15.2933 22.7067L9.29333 16.7067C9.19508 16.6151 9.11628 16.5047 9.06163 16.3821C9.00697 16.2594 8.97758 16.127 8.97521 15.9927C8.97284 15.8584 8.99754 15.7251 9.04784 15.6005C9.09813 15.476 9.17299 15.3629 9.26795 15.2679C9.36291 15.173 9.47602 15.0981 9.60054 15.0478C9.72505 14.9975 9.85843 14.9728 9.9927 14.9752C10.127 14.9776 10.2594 15.007 10.3821 15.0616C10.5047 15.1163 10.6151 15.1951 10.7067 15.2933L15 19.5867V4C15 3.73478 15.1054 3.48043 15.2929 3.29289C15.4804 3.10536 15.7348 3 16 3ZM4 21C4.26522 21 4.51957 21.1054 4.70711 21.2929C4.89464 21.4804 5 21.7348 5 22V25C5 25.5304 5.21071 26.0391 5.58579 26.4142C5.96086 26.7893 6.46957 27 7 27H25C25.5304 27 26.0391 26.7893 26.4142 26.4142C26.7893 26.0391 27 25.5304 27 25V22C27 21.7348 27.1054 21.4804 27.2929 21.2929C27.4804 21.1054 27.7348 21 28 21C28.2652 21 28.5196 21.1054 28.7071 21.2929C28.8946 21.4804 29 21.7348 29 22V25C29 26.0609 28.5786 27.0783 27.8284 27.8284C27.0783 28.5786 26.0609 29 25 29H7C5.93913 29 4.92172 28.5786 4.17157 27.8284C3.42143 27.0783 3 26.0609 3 25V22C3 21.7348 3.10536 21.4804 3.29289 21.2929C3.48043 21.1054 3.73478 21 4 21Z" />
</svg>