<svg width="32" height="32" viewBox="0 0 32 32" fill="currentColor" xmlns="http://www.w3.org/2000/svg">
    <path d="M3 25.0001V11.0001C3 9.93921 3.42142 8.92177 4.17156 8.17163C4.92171 7.42149 5.93914 7.00007 7 7.00007H13.3333C13.8856 7.00007 14.3333 7.44779 14.3333 8.00007C14.3333 8.55235 13.8856 9.00007 13.3333 9.00007H7C6.46957 9.00007 5.96085 9.21078 5.58578 9.58585C5.21071 9.96092 5 10.4696 5 11.0001V25.0001C5 25.5305 5.21071 26.0392 5.58578 26.4143C5.96085 26.7894 6.46957 27.0001 7 27.0001H21C21.5304 27.0001 22.0391 26.7894 22.4142 26.4143C22.7893 26.0392 23 25.5305 23 25.0001V18.6668C23 18.1145 23.4477 17.6668 24 17.6668C24.5523 17.6668 25 18.1145 25 18.6668V25.0001C25 26.0609 24.5786 27.0784 23.8284 27.8285C23.0783 28.5787 22.0609 29.0001 21 29.0001H7C5.93913 29.0001 4.92171 28.5787 4.17156 27.8285C3.42142 27.0784 3 26.0609 3 25.0001ZM28.0003 5.50007C28.0003 5.10216 27.8423 4.72049 27.5609 4.43913C27.2796 4.15777 26.8979 3.99976 26.5 3.99976C26.1022 3.99976 25.7206 4.1576 25.4392 4.43882L25.4394 4.43897L23.8966 5.98241L26.018 8.10382L27.5609 6.56101C27.8423 6.27964 28.0003 5.89798 28.0003 5.50007ZM11.2805 18.5979C10.6935 19.1852 10.2621 19.9095 10.0252 20.7054L10.025 20.7057L9.48625 22.5138L11.2945 21.9751C12.0904 21.7381 12.8148 21.3066 13.4022 20.7196L24.6037 9.51804L22.4825 7.39679L11.2805 18.5979ZM30.0003 5.50007C30.0003 6.42841 29.6316 7.31879 28.9752 7.97522L14.8164 22.1338L14.8162 22.1341C13.9939 22.956 12.9796 23.5599 11.8653 23.8916L11.8655 23.8918L8.28547 24.9585C7.93361 25.0633 7.5526 24.9668 7.29297 24.7073C7.03333 24.4476 6.93674 24.0665 7.04156 23.7146L8.10828 20.1346C8.44006 19.0203 9.04423 18.0062 9.86609 17.1838L24.0247 3.02522L24.0248 3.02491C24.6813 2.36848 25.5717 1.99976 26.5 1.99976C27.4283 1.99976 28.3187 2.36848 28.9752 3.02491C29.6316 3.68135 30.0003 4.57173 30.0003 5.50007Z" />
</svg>