<svg width="32" height="32" viewBox="0 0 32 32" fill="currentColor" xmlns="http://www.w3.org/2000/svg">
  <path d="M17.727 3a2.5 2.5 0 0 1 2.466 2.089l.284 1.706.014.059c.041.135.15.281.336.387l.334.194.08.043a.633.633 0 0 0 .486.042l1.622-.609a2.5 2.5 0 0 1 2.925.903l.12.187v.001l1.727 2.996h.001a2.5 2.5 0 0 1-.578 3.18l-1.337 1.101v.001a.627.627 0 0 0-.207.44l-.002.09v.381a.684.684 0 0 0 .165.488l.044.04 1.339 1.104a2.502 2.502 0 0 1 .577 3.178v.001l-1.732 2.995a2.5 2.5 0 0 1-3.041 1.092l-1.623-.608c-.142-.054-.352-.045-.569.085a9.577 9.577 0 0 1-.322.188h-.002c-.217.12-.33.298-.357.451l-.283 1.705A2.5 2.5 0 0 1 17.728 29h-3.46a2.501 2.501 0 0 1-2.465-2.088h-.001l-.284-1.709c-.025-.152-.137-.328-.357-.45v-.001l-.325-.187c-.215-.129-.423-.14-.569-.085h.002l-1.623.609v-.001a2.5 2.5 0 0 1-3.042-1.089l-1.73-2.996v-.001a2.5 2.5 0 0 1 .578-3.18L5.79 16.72c.117-.096.213-.281.209-.53a10.278 10.278 0 0 1 0-.378c.005-.25-.09-.433-.209-.532l-1.338-1.102-.164-.149A2.5 2.5 0 0 1 3.874 11v-.001l1.73-2.996.119-.187a2.5 2.5 0 0 1 2.925-.904l1.622.608h-.002c.146.053.354.044.568-.085.11-.068.221-.131.316-.185l.011-.006c.218-.12.33-.295.355-.446v-.001l.286-1.708A2.5 2.5 0 0 1 14.27 3h3.457ZM14.27 5a.5.5 0 0 0-.494.417v.001l-.285 1.708c-.14.846-.695 1.502-1.362 1.87h-.001a8.927 8.927 0 0 0-.254.148l-.005.003c-.652.394-1.497.546-2.3.246h-.003l-1.62-.609a.5.5 0 0 0-.61.218l-1.73 2.995a.502.502 0 0 0 .117.636l1.338 1.103h.001c.66.545.95 1.35.937 2.113a8.265 8.265 0 0 0 0 .303c.014.759-.276 1.569-.939 2.113l-1.337 1.101v.001a.5.5 0 0 0-.117.636l1.729 2.995a.5.5 0 0 0 .61.218l1.622-.609h.001c.804-.3 1.65-.148 2.301.245v.002c.086.051.172.1.26.149h.002c.665.37 1.22 1.026 1.36 1.872l.284 1.708c.042.241.25.417.493.417h3.46a.5.5 0 0 0 .493-.417l.284-1.708v-.003c.142-.844.696-1.5 1.361-1.867.087-.048.172-.098.257-.15l.005-.003c.652-.391 1.497-.546 2.3-.245l1.624.609a.5.5 0 0 0 .608-.219l1.73-2.996a.501.501 0 0 0-.117-.635l-1.337-1.101-.12-.106c-.577-.54-.833-1.295-.818-2.01.002-.1.002-.202 0-.302-.015-.762.277-1.568.938-2.112l1.336-1.101.001-.001a.501.501 0 0 0 .116-.636L24.66 9.001a.5.5 0 0 0-.608-.217h-.001l-1.623.609c-.804.3-1.65.147-2.301-.246A6.289 6.289 0 0 0 19.876 9l-.01-.005c-.665-.369-1.219-1.024-1.361-1.868v-.003l-.284-1.708A.5.5 0 0 0 17.727 5H14.27Zm4.728 11a3 3 0 1 0-6 0 3 3 0 0 0 6 0Zm2 0a5 5 0 1 1-10-.001 5 5 0 0 1 10 .001Z"/>
</svg>
