<svg width="32" height="32" viewBox="0 0 32 32" fill="currentColor" xmlns="http://www.w3.org/2000/svg">
    <path d="M27 16C27 13.0826 25.841 10.2848 23.7781 8.22187C21.7152 6.15897 18.9174 5 16 5C13.0826 5 10.2848 6.15897 8.22187 8.22187C6.15897 10.2848 5 13.0826 5 16C5 17.4445 5.28454 18.8749 5.83734 20.2095C6.39015 21.5441 7.20044 22.7567 8.22187 23.7781C9.24331 24.7996 10.4559 25.6099 11.7905 26.1627C13.125 26.7155 14.5555 27 16 27C17.4445 27 18.875 26.7155 20.2095 26.1627C21.5441 25.6099 22.7567 24.7996 23.7781 23.7781C24.7996 22.7567 25.6099 21.5441 26.1627 20.2095C26.7155 18.875 27 17.4445 27 16ZM14.6162 14.0747C14.9561 13.9069 15.3366 13.839 15.7136 13.8792C16.0936 13.9197 16.4541 14.0683 16.7523 14.3073C17.0506 14.5464 17.2741 14.866 17.3964 15.2281C17.5187 15.5903 17.5346 15.9799 17.4423 16.3508L17.4422 16.3516L16.4983 20.1328L16.498 20.1336L16.5441 20.11C17.0356 19.8582 17.6382 20.0526 17.89 20.5441C18.1418 21.0356 17.9474 21.6382 17.4559 21.89L17.4012 21.918C17.3984 21.9194 17.3955 21.9209 17.3927 21.9223C17.0505 22.0935 16.6664 22.1629 16.2859 22.1223C15.9055 22.0818 15.5446 21.9329 15.2462 21.6934C14.9479 21.454 14.7245 21.134 14.6025 20.7714C14.4805 20.4088 14.465 20.0188 14.558 19.6477L15.5016 15.868C15.4988 15.8694 15.4959 15.8707 15.4931 15.872L15.4384 15.8987C14.9421 16.1409 14.3434 15.9348 14.1012 15.4384C13.8591 14.9421 14.0652 14.3434 14.5616 14.1012L14.6162 14.0745V14.0747ZM16.0106 10C16.5629 10 17.0106 10.4477 17.0106 11V11.0106C17.0106 11.5629 16.5629 12.0106 16.0106 12.0106H16C15.4477 12.0106 15 11.5629 15 11.0106V11C15 10.4477 15.4477 10 16 10H16.0106ZM29 16C29 17.7072 28.6638 19.3976 28.0105 20.9748C27.3572 22.5521 26.3995 23.9852 25.1923 25.1923C23.9852 26.3995 22.5521 27.3572 20.9748 28.0105C19.3976 28.6638 17.7072 29 16 29C14.2928 29 12.6024 28.6638 11.0252 28.0105C9.44792 27.3572 8.01482 26.3995 6.80766 25.1923C5.60049 23.9852 4.64284 22.5521 3.98953 20.9748C3.33623 19.3976 3 17.7072 3 16C3 12.5522 4.36968 9.24563 6.80766 6.80766C9.24563 4.36968 12.5522 3 16 3C19.4478 3 22.7544 4.36968 25.1923 6.80766C27.6303 9.24563 29 12.5522 29 16Z" />
</svg>