<svg width="32" height="32" viewBox="0 0 32 32" fill="currentColor" xmlns="http://www.w3.org/2000/svg">
    <path fill-rule="evenodd" clip-rule="evenodd" d="M26.5359 5.46406C26.0716 4.99963 25.5204 4.63122 24.9137 4.37986C24.3069 4.1285 23.6567 3.99913 22.9999 3.99913C22.3432 3.99913 21.6929 4.1285 21.0862 4.37986C20.4795 4.63122 19.9282 4.99963 19.4639 5.46406L13.4639 11.4641C12.8979 12.0296 12.4758 12.7228 12.2332 13.4853C11.9907 14.2478 11.9346 15.0574 12.0698 15.846C12.205 16.6347 12.5275 17.3794 13.0103 18.0175C13.493 18.6557 14.1218 19.1687 14.8439 19.5134C15.075 19.6325 15.2506 19.8369 15.3336 20.0832C15.4165 20.3296 15.4003 20.5986 15.2883 20.8332C15.1763 21.0678 14.9773 21.2495 14.7336 21.3399C14.4898 21.4303 14.2205 21.4222 13.9826 21.3174C12.9721 20.8347 12.0921 20.1166 11.4166 19.2234C10.7411 18.3301 10.2898 17.2879 10.1005 16.1841C9.91123 15.0803 9.98955 13.9473 10.3289 12.88C10.6682 11.8128 11.2586 10.8425 12.0506 10.0507L18.0506 4.05073C18.6975 3.38691 19.4697 2.85816 20.3226 2.49517C21.1754 2.13218 22.0918 1.94218 23.0187 1.93618C23.9455 1.93019 24.8644 2.10832 25.7218 2.46025C26.5793 2.81218 27.3583 3.33089 28.0137 3.98629C28.6691 4.64169 29.1878 5.42072 29.5398 6.27818C29.8917 7.13564 30.0698 8.05446 30.0638 8.98131C30.0578 9.90816 29.8678 10.8246 29.5048 11.6774C29.1418 12.5303 28.6131 13.3025 27.9493 13.9494L25.6066 16.2921C25.5151 16.3903 25.4047 16.4691 25.282 16.5238C25.1593 16.5784 25.0269 16.6078 24.8926 16.6102C24.7584 16.6126 24.625 16.5879 24.5005 16.5376C24.376 16.4873 24.2628 16.4124 24.1679 16.3174C24.0729 16.2225 23.9981 16.1094 23.9478 15.9849C23.8975 15.8603 23.8728 15.727 23.8752 15.5927C23.8775 15.4584 23.9069 15.326 23.9616 15.2033C24.0162 15.0807 24.095 14.9703 24.1933 14.8787L26.5359 12.5361C27.0004 12.0718 27.3688 11.5205 27.6201 10.9138C27.8715 10.3071 28.0009 9.65678 28.0009 9.00006C28.0009 8.34334 27.8715 7.69305 27.6201 7.08634C27.3688 6.47963 27.0004 5.92837 26.5359 5.46406ZM16.6839 11.1534C16.7984 10.9142 17.0031 10.7303 17.2532 10.642C17.5032 10.5537 17.778 10.5684 18.0173 10.6827C19.0278 11.1654 19.9077 11.8835 20.5833 12.7768C21.2588 13.67 21.7101 14.7122 21.8994 15.816C22.0886 16.9198 22.0103 18.0529 21.671 19.1201C21.3317 20.1874 20.7412 21.1576 19.9493 21.9494L13.9493 27.9494C13.3024 28.6132 12.5302 29.142 11.6773 29.505C10.8245 29.8679 9.90804 30.0579 8.98119 30.0639C8.05433 30.0699 7.13552 29.8918 6.27806 29.5399C5.4206 29.1879 4.64156 28.6692 3.98617 28.0138C3.33077 27.3584 2.81205 26.5794 2.46013 25.7219C2.1082 24.8645 1.93006 23.9457 1.93606 23.0188C1.94205 22.092 2.13206 21.1755 2.49505 20.3227C2.85804 19.4699 3.38679 18.6976 4.05061 18.0507L6.39327 15.7081C6.48482 15.6098 6.59522 15.531 6.71789 15.4764C6.84056 15.4217 6.97297 15.3923 7.10724 15.3899C7.24151 15.3876 7.37489 15.4123 7.4994 15.4626C7.62392 15.5129 7.73703 15.5877 7.83199 15.6827C7.92695 15.7776 8.00181 15.8907 8.0521 16.0153C8.1024 16.1398 8.1271 16.2732 8.12473 16.4074C8.12236 16.5417 8.09297 16.6741 8.03832 16.7968C7.98366 16.9194 7.90486 17.0298 7.80661 17.1214L5.46394 19.4641C4.99959 19.9284 4.63124 20.4797 4.37993 21.0864C4.12863 21.6931 3.99928 22.3434 3.99928 23.0001C3.99928 23.6568 4.12863 24.307 4.37993 24.9137C4.63124 25.5204 4.99959 26.0717 5.46394 26.5361C5.92829 27.0004 6.47956 27.3688 7.08627 27.6201C7.69298 27.8714 8.34324 28.0007 8.99994 28.0007C9.65664 28.0007 10.3069 27.8714 10.9136 27.6201C11.5203 27.3688 12.0716 27.0004 12.5359 26.5361L18.5359 20.5361C19.102 19.9705 19.524 19.2774 19.7666 18.5149C20.0092 17.7523 20.0653 16.9427 19.9301 16.1541C19.7949 15.3654 19.4723 14.6207 18.9896 13.9826C18.5069 13.3444 17.8781 12.8314 17.1559 12.4867C17.0374 12.4302 16.9311 12.3508 16.8433 12.2532C16.7554 12.1556 16.6876 12.0417 16.6437 11.9178C16.5999 11.794 16.5809 11.6628 16.5878 11.5316C16.5947 11.4005 16.6274 11.2719 16.6839 11.1534Z" />
</svg>