<svg width="32" height="32" viewBox="0 0 32 32" fill="currentColor" xmlns="http://www.w3.org/2000/svg">
    <path fill-rule="evenodd" clip-rule="evenodd" d="M3.5 9C3.5 8.60218 3.65804 8.22064 3.93934 7.93934C4.22064 7.65804 4.60218 7.5 5 7.5C5.39782 7.5 5.77936 7.65804 6.06066 7.93934C6.34196 8.22064 6.5 8.60218 6.5 9C6.5 9.39782 6.34196 9.77936 6.06066 10.0607C5.77936 10.342 5.39782 10.5 5 10.5C4.60218 10.5 4.22064 10.342 3.93934 10.0607C3.65804 9.77936 3.5 9.39782 3.5 9ZM10 9C10 8.73478 10.1054 8.48043 10.2929 8.29289C10.4804 8.10536 10.7348 8 11 8H27C27.2652 8 27.5196 8.10536 27.7071 8.29289C27.8946 8.48043 28 8.73478 28 9C28 9.26522 27.8946 9.51957 27.7071 9.70711C27.5196 9.89464 27.2652 10 27 10H11C10.7348 10 10.4804 9.89464 10.2929 9.70711C10.1054 9.51957 10 9.26522 10 9ZM3.5 16C3.5 15.6022 3.65804 15.2206 3.93934 14.9393C4.22064 14.658 4.60218 14.5 5 14.5C5.39782 14.5 5.77936 14.658 6.06066 14.9393C6.34196 15.2206 6.5 15.6022 6.5 16C6.5 16.3978 6.34196 16.7794 6.06066 17.0607C5.77936 17.342 5.39782 17.5 5 17.5C4.60218 17.5 4.22064 17.342 3.93934 17.0607C3.65804 16.7794 3.5 16.3978 3.5 16ZM10 16C10 15.7348 10.1054 15.4804 10.2929 15.2929C10.4804 15.1054 10.7348 15 11 15H27C27.2652 15 27.5196 15.1054 27.7071 15.2929C27.8946 15.4804 28 15.7348 28 16C28 16.2652 27.8946 16.5196 27.7071 16.7071C27.5196 16.8946 27.2652 17 27 17H11C10.7348 17 10.4804 16.8946 10.2929 16.7071C10.1054 16.5196 10 16.2652 10 16ZM3.5 23C3.5 22.6022 3.65804 22.2206 3.93934 21.9393C4.22064 21.658 4.60218 21.5 5 21.5C5.39782 21.5 5.77936 21.658 6.06066 21.9393C6.34196 22.2206 6.5 22.6022 6.5 23C6.5 23.3978 6.34196 23.7794 6.06066 24.0607C5.77936 24.342 5.39782 24.5 5 24.5C4.60218 24.5 4.22064 24.342 3.93934 24.0607C3.65804 23.7794 3.5 23.3978 3.5 23ZM10 23C10 22.7348 10.1054 22.4804 10.2929 22.2929C10.4804 22.1054 10.7348 22 11 22H27C27.2652 22 27.5196 22.1054 27.7071 22.2929C27.8946 22.4804 28 22.7348 28 23C28 23.2652 27.8946 23.5196 27.7071 23.7071C27.5196 23.8946 27.2652 24 27 24H11C10.7348 24 10.4804 23.8946 10.2929 23.7071C10.1054 23.5196 10 23.2652 10 23Z" />
</svg>