<svg width="32" height="32" viewBox="0 0 32 32" fill="currentColor" xmlns="http://www.w3.org/2000/svg">
    <path d="M27 16C27 13.0826 25.841 10.2848 23.7781 8.22187C21.7152 6.15897 18.9174 5 16 5C13.0826 5 10.2848 6.15897 8.22187 8.22187C6.15897 10.2848 5 13.0826 5 16C5 17.4445 5.28454 18.8749 5.83734 20.2095C6.39015 21.5441 7.20044 22.7567 8.22187 23.7781C9.24331 24.7996 10.4559 25.6099 11.7905 26.1627C13.125 26.7155 14.5555 27 16 27C17.4445 27 18.875 26.7155 20.2095 26.1627C21.5441 25.6099 22.7567 24.7996 23.7781 23.7781C24.7996 22.7567 25.6099 21.5441 26.1627 20.2095C26.7155 18.875 27 17.4445 27 16ZM19.1862 12.4187C19.5073 11.9693 20.1318 11.8652 20.5812 12.1862C21.0307 12.5073 21.1348 13.1318 20.8137 13.5812L15.8137 20.5812C15.6429 20.8204 15.3754 20.9723 15.0825 20.9966C14.7895 21.0208 14.5008 20.9149 14.293 20.707L11.293 17.707C10.9024 17.3165 10.9024 16.6835 11.293 16.293C11.6835 15.9024 12.3165 15.9024 12.707 16.293L14.8722 18.4581L19.1862 12.4187ZM29 16C29 17.7072 28.6638 19.3976 28.0105 20.9748C27.3572 22.5521 26.3995 23.9852 25.1923 25.1923C23.9852 26.3995 22.5521 27.3572 20.9748 28.0105C19.3976 28.6638 17.7072 29 16 29C14.2928 29 12.6024 28.6638 11.0252 28.0105C9.44792 27.3572 8.01482 26.3995 6.80766 25.1923C5.60049 23.9852 4.64284 22.5521 3.98953 20.9748C3.33623 19.3976 3 17.7072 3 16C3 12.5522 4.36968 9.24563 6.80766 6.80766C9.24563 4.36968 12.5522 3 16 3C19.4478 3 22.7544 4.36968 25.1923 6.80766C27.6303 9.24563 29 12.5522 29 16Z" />
</svg>