<svg width="32" height="32" viewBox="0 0 32 32" fill="currentColor" xmlns="http://www.w3.org/2000/svg">
    <path d="M17.8959 28.9013C18.4452 28.8438 18.937 29.2425 18.9945 29.7917C19.052 30.341 18.6535 30.8329 18.1042 30.8905C16.7053 31.0369 15.2949 31.0369 13.8959 30.8905C13.3467 30.833 12.948 30.341 13.0055 29.7917C13.063 29.2425 13.555 28.8438 14.1042 28.9013C15.3647 29.0332 16.6355 29.0332 17.8959 28.9013ZM18.8134 25.7361C19.356 25.6331 19.8795 25.9895 19.9825 26.532C20.0855 27.0746 19.7291 27.5979 19.1866 27.7009C17.081 28.1008 14.919 28.1008 12.8134 27.7009C12.2709 27.5979 11.9146 27.0746 12.0177 26.532C12.1207 25.9895 12.644 25.6331 13.1866 25.7361C15.0456 26.0891 16.9544 26.0891 18.8134 25.7361ZM15 23.9999V17.9447C14.5793 17.898 14.162 17.8219 13.7513 17.7164C13.2163 17.579 12.8942 17.034 13.0316 16.4991C13.169 15.9642 13.714 15.642 14.2489 15.7794C14.8207 15.9263 15.4088 16.0003 15.9992 15.9999H16.0008C16.5912 16.0003 17.1794 15.9263 17.7513 15.7794C18.2862 15.642 18.8312 15.9642 18.9686 16.4991C19.106 17.034 18.7838 17.579 18.2489 17.7164C17.8381 17.8219 17.4207 17.8982 17 17.9449V23.9999C17 24.5521 16.5523 24.9999 16 24.9999C15.4477 24.9998 15 24.5521 15 23.9999ZM18 23.9999V23.7439C18 21.9638 19.1794 20.562 20.5091 19.7908L20.5095 19.7905C22.2231 18.7981 23.5617 17.2683 24.3177 15.4381C25.0736 13.608 25.205 11.5796 24.6913 9.6672C24.1775 7.75481 23.0473 6.06512 21.4759 4.86017C19.9046 3.65521 17.9796 3.0022 15.9994 3.0022C14.0192 3.0022 12.0942 3.65521 10.5228 4.86017C8.95143 6.06512 7.82127 7.75481 7.30751 9.6672C6.79377 11.5796 6.92513 13.608 7.6811 15.4381C8.41348 17.2112 9.69252 18.7023 11.3297 19.6959L11.4892 19.7905L11.4897 19.7908C12.8188 20.5616 14 21.9632 14 23.7439V23.9999C14 24.5521 13.5523 24.9999 13 24.9999C12.4477 24.9998 12 24.5521 12 23.9999V23.7439C12 22.9033 11.4239 22.0648 10.4863 21.5209V21.5208C8.39219 20.3079 6.7564 18.4384 5.83251 16.2017C4.90853 13.9648 4.74818 11.4856 5.3761 9.14829C6.00404 6.81093 7.38535 4.74586 9.30594 3.27313C11.2265 1.80043 13.5792 1.0022 15.9994 1.0022C18.4196 1.0022 20.7724 1.80041 22.693 3.27313C24.6135 4.74585 25.9947 6.81095 26.6227 9.14829C27.2506 11.4856 27.0902 13.9648 26.1663 16.2017C25.2424 18.4384 23.6065 20.3079 21.5124 21.5208C20.5754 22.0642 20 22.9027 20 23.7439V23.9999C20 24.5521 19.5523 24.9999 19 24.9999C18.4477 24.9998 18 24.5521 18 23.9999Z" />
</svg>