<svg width="32" height="32" viewBox="0 0 32 32" fill="currentColor" xmlns="http://www.w3.org/2000/svg">
    <path d="M31.9373 6.09337C30.7393 6.62084 29.4701 6.96902 28.1707 7.1267C29.5388 6.30437 30.5632 5.01476 31.0547 3.49603C29.7867 4.23603 28.3813 4.7747 26.8853 5.0747C25.8983 4.01927 24.5905 3.31926 23.1649 3.08337C21.7392 2.84748 20.2756 3.0889 19.0012 3.77016C17.7269 4.45141 16.7131 5.53437 16.1174 6.85087C15.5217 8.16736 15.3773 9.64373 15.7067 11.0507C10.2533 10.7934 5.42267 8.17337 2.18667 4.21603C1.59839 5.21579 1.29155 6.35607 1.29867 7.51603C1.29867 9.79603 2.45867 11.8 4.216 12.9774C3.17448 12.9442 2.15596 12.6626 1.24533 12.156V12.236C1.24474 13.7512 1.76836 15.22 2.72734 16.393C3.68633 17.5661 5.02162 18.3713 6.50667 18.672C5.5444 18.9299 4.53655 18.9686 3.55733 18.7854C3.97883 20.0894 4.79688 21.2293 5.89735 22.046C6.99782 22.8628 8.3258 23.3156 9.696 23.3414C7.37537 25.1626 4.50997 26.1511 1.56 26.148C1.04 26.148 0.521333 26.1174 0 26.0587C3.00761 27.9845 6.50468 29.0067 10.076 29.004C22.1467 29.004 28.74 19.0094 28.74 10.3574C28.74 10.0774 28.74 9.79737 28.72 9.51737C30.008 8.59052 31.119 7.43979 32 6.12003L31.9373 6.09337Z" />
</svg>