<svg width="32" height="32" viewBox="0 0 32 32" fill="currentColor" xmlns="http://www.w3.org/2000/svg">
    <path fill-rule="evenodd" clip-rule="evenodd" d="M7.29331 7.29337C7.48081 7.10611 7.73497 7.00092 7.99997 7.00092C8.26498 7.00092 8.51914 7.10611 8.70664 7.29337L16 14.5867L23.2933 7.29337C23.3849 7.19513 23.4953 7.11632 23.6179 7.06167C23.7406 7.00701 23.873 6.97762 24.0073 6.97525C24.1415 6.97288 24.2749 6.99758 24.3994 7.04788C24.524 7.09817 24.6371 7.17303 24.732 7.26799C24.827 7.36295 24.9018 7.47606 24.9521 7.60058C25.0024 7.7251 25.0271 7.85847 25.0248 7.99274C25.0224 8.12701 24.993 8.25943 24.9383 8.38209C24.8837 8.50476 24.8049 8.61516 24.7066 8.70671L17.4133 16L24.7066 23.2934C24.8049 23.3849 24.8837 23.4953 24.9383 23.618C24.993 23.7407 25.0224 23.8731 25.0248 24.0073C25.0271 24.1416 25.0024 24.275 24.9521 24.3995C24.9018 24.524 24.827 24.6371 24.732 24.7321C24.6371 24.827 24.524 24.9019 24.3994 24.9522C24.2749 25.0025 24.1415 25.0272 24.0073 25.0248C23.873 25.0225 23.7406 24.9931 23.6179 24.9384C23.4953 24.8838 23.3849 24.805 23.2933 24.7067L16 17.4134L8.70664 24.7067C8.51707 24.8833 8.26635 24.9795 8.00728 24.9749C7.74821 24.9704 7.50103 24.8654 7.31781 24.6822C7.13459 24.499 7.02965 24.2518 7.02507 23.9927C7.0205 23.7337 7.11667 23.4829 7.29331 23.2934L14.5866 16L7.29331 8.70671C7.10604 8.51921 7.00085 8.26504 7.00085 8.00004C7.00085 7.73504 7.10604 7.48088 7.29331 7.29337Z" />
</svg>