<svg width="32" height="32" viewBox="0 0 32 32" fill="currentColor" xmlns="http://www.w3.org/2000/svg">
    <path fill-rule="evenodd" clip-rule="evenodd" d="M14.7063 5.28049C14.8935 5.46799 14.9987 5.72216 14.9987 5.98716C14.9987 6.25216 14.8935 6.50632 14.7063 6.69382L6.41294 14.9872H27.9996C28.2648 14.9872 28.5192 15.0925 28.7067 15.2801C28.8942 15.4676 28.9996 15.7219 28.9996 15.9872C28.9996 16.2524 28.8942 16.5067 28.7067 16.6943C28.5192 16.8818 28.2648 16.9872 27.9996 16.9872H6.41294L14.7063 25.2805C14.8045 25.372 14.8833 25.4824 14.938 25.6051C14.9926 25.7278 15.022 25.8602 15.0244 25.9945C15.0268 26.1287 15.0021 26.2621 14.9518 26.3866C14.9015 26.5111 14.8266 26.6243 14.7317 26.7192C14.6367 26.8142 14.5236 26.889 14.3991 26.9393C14.2746 26.9896 14.1412 27.0143 14.0069 27.0119C13.8726 27.0096 13.7402 26.9802 13.6176 26.9255C13.4949 26.8709 13.3845 26.7921 13.2929 26.6938L3.29294 16.6938C3.10567 16.5063 3.00049 16.2522 3.00049 15.9872C3.00049 15.7222 3.10567 15.468 3.29294 15.2805L13.2929 5.28049C13.4804 5.09322 13.7346 4.98804 13.9996 4.98804C14.2646 4.98804 14.5188 5.09322 14.7063 5.28049Z" />
</svg>