<svg width="32" height="32" viewBox="0 0 32 32" fill="currentColor" xmlns="http://www.w3.org/2000/svg">
    <path fill-rule="evenodd" clip-rule="evenodd" d="M15.5943 26.2399C14.4115 26.2399 12.8343 25.5039 12.8343 23.2959C12.8343 21.0879 14.4115 20.3883 15.5943 20.3519C17.5657 20.3519 18.3543 21.8239 18.3543 22.5599C20.72 22.5599 22.2972 21.8239 22.2972 21.0879C20.72 21.0879 20.72 20.3519 20.72 19.6159C20.72 18.8799 20.72 14.4113 20.72 13.6228C20.72 12.8342 20.72 12.0456 21.9029 12.0456C21.9029 11.3096 21.9029 11.1782 21.5086 10.0742C19.9315 6.13134 17.5657 5.73705 15.2 5.73705C12.8343 5.73705 10.4686 6.13134 8.89146 10.0479C8.49718 11.1519 8.49718 11.3096 8.49718 12.0456C9.68003 12.0456 9.68003 12.8342 9.68003 13.6228C9.68003 14.4113 9.68003 18.8799 9.68003 19.6159C9.68003 20.3519 9.68003 21.0879 8.10289 21.0879C6.52575 21.0879 7.31432 21.0879 5.73718 21.0879C4.16003 21.0879 4.16003 20.3519 4.16003 19.6159C4.16003 18.8799 4.16003 14.4113 4.16003 13.6228C4.16003 12.8342 4.16003 12.0456 6.13146 12.0456C6.13146 6.52563 10.8629 4.15991 13.6229 4.15991C16.3829 4.15991 14.0172 4.15991 16.7772 4.15991C19.5372 4.15991 24.2686 6.52563 24.2686 12.0456C26.24 12.0456 26.24 12.8342 26.24 13.6228C26.24 14.4113 26.24 18.8799 26.24 19.6159C26.24 20.3519 26.24 21.0879 24.6629 21.0879C24.6629 21.0879 24.2686 21.0879 23.8743 21.8239C23.48 22.5599 21.5086 24.0319 18.3543 24.0319C18.3543 24.7679 17.5657 26.2399 15.5943 26.2399ZM5.73718 18.5119C5.73718 18.8799 5.73718 19.6159 6.92003 19.6159C8.10289 19.6159 8.10289 18.8799 8.10289 18.5119C8.10289 18.1439 8.10289 15.1736 8.10289 14.8056C8.10289 14.4376 8.10289 13.6228 6.92003 13.6228C5.73718 13.6228 5.73718 14.4376 5.73718 14.8056C5.73718 15.1736 5.73718 18.1439 5.73718 18.5119ZM22.2972 18.5119C22.2972 18.8799 22.2972 19.6159 23.48 19.6159C24.6629 19.6159 24.6629 18.8799 24.6629 18.5119C24.6629 18.1439 24.6629 15.1736 24.6629 14.8056C24.6629 14.4376 24.6629 13.6228 23.48 13.6228C22.2972 13.6228 22.2972 14.4376 22.2972 14.8056C22.2972 15.1736 22.2972 18.1439 22.2972 18.5119ZM15.5943 21.8239C14.4115 21.8239 14.4115 22.5599 14.4115 23.2959C14.4115 24.0319 14.4115 24.7679 15.5943 24.7679C16.7772 24.7679 16.7772 24.0319 16.7772 23.2959C16.7772 22.5599 16.7772 21.8239 15.5943 21.8239Z" />
</svg>