<svg width="32" height="32" viewBox="0 0 32 32" fill="currentColor" xmlns="http://www.w3.org/2000/svg">
    <path fill-rule="evenodd" clip-rule="evenodd" d="M21 3H28C28.2652 3 28.5196 3.10536 28.7071 3.29289C28.8946 3.48043 29 3.73478 29 4V11C29 11.2652 28.8946 11.5196 28.7071 11.7071C28.5196 11.8946 28.2652 12 28 12C27.7348 12 27.4804 11.8946 27.2929 11.7071C27.1054 11.5196 27 11.2652 27 11V6.41333L10.7067 22.7067C10.5171 22.8833 10.2664 22.9795 10.0073 22.9749C9.74824 22.9703 9.50105 22.8654 9.31784 22.6822C9.13462 22.4989 9.02967 22.2518 9.0251 21.9927C9.02053 21.7336 9.11669 21.4829 9.29333 21.2933L25.5867 5H21C20.7348 5 20.4804 4.89464 20.2929 4.70711C20.1054 4.51957 20 4.26522 20 4C20 3.73478 20.1054 3.48043 20.2929 3.29289C20.4804 3.10536 20.7348 3 21 3ZM7 9C6.46957 9 5.96086 9.21071 5.58579 9.58579C5.21071 9.96086 5 10.4696 5 11V25C5 25.5304 5.21071 26.0391 5.58579 26.4142C5.96086 26.7893 6.46957 27 7 27H21C21.5304 27 22.0391 26.7893 22.4142 26.4142C22.7893 26.0391 23 25.5304 23 25V14C23 13.7348 23.1054 13.4804 23.2929 13.2929C23.4804 13.1054 23.7348 13 24 13C24.2652 13 24.5196 13.1054 24.7071 13.2929C24.8946 13.4804 25 13.7348 25 14V25C25 26.0609 24.5786 27.0783 23.8284 27.8284C23.0783 28.5786 22.0609 29 21 29H7C5.93913 29 4.92172 28.5786 4.17157 27.8284C3.42143 27.0783 3 26.0609 3 25V11C3 9.93913 3.42143 8.92172 4.17157 8.17157C4.92172 7.42143 5.93913 7 7 7H18C18.2652 7 18.5196 7.10536 18.7071 7.29289C18.8946 7.48043 19 7.73478 19 8C19 8.26522 18.8946 8.51957 18.7071 8.70711C18.5196 8.89464 18.2652 9 18 9H7Z" />
</svg>