<svg width="32" height="32" viewBox="0 0 32 32" fill="#fff" xmlns="http://www.w3.org/2000/svg">
    <path d="M14.56 15.0399C15.04 15.0399 15.04 13.1199 16 12.1599C16.96 11.1999 18.56 11.1999 18.56 10.8799C18.56 10.5599 16.96 10.5599 16 9.59989C15.04 8.63989 15.04 6.71989 14.56 6.71989C14.08 6.71989 14.08 8.63989 13.12 9.59989C12.16 10.5599 10.56 10.5599 10.56 10.8799C10.56 11.1999 12.16 11.1999 13.12 12.1599C14.08 13.1199 14.08 15.0399 14.56 15.0399Z" />
    <path d="M19.68 6.07991C19.68 5.91991 20.64 5.91991 20.96 5.59991C21.28 5.27991 21.44 4.15991 21.6 4.15991C21.76 4.15991 21.92 5.27991 22.24 5.59991C22.56 5.91991 23.68 5.91991 23.68 6.07991C23.68 6.23991 22.56 6.39991 22.24 6.71991C21.92 7.03991 21.76 8.15991 21.6 8.15991C21.44 8.15991 21.28 7.03991 20.96 6.71991C20.64 6.39991 19.68 6.23991 19.68 6.07991Z" />
    <path d="M20.48 14.3999C20.48 14.7199 21.44 14.3999 22.4 15.3599C23.36 16.3199 23.04 17.2799 23.36 17.2799C23.68 17.2799 23.36 16.3199 24.32 15.3599C25.28 14.3999 26.24 14.7199 26.24 14.3999C26.24 14.0799 25.28 14.3999 24.32 13.4399C23.36 12.4799 23.68 11.5199 23.36 11.5199C23.04 11.5199 23.36 12.4799 22.4 13.4399C21.44 14.3999 20.48 14.0799 20.48 14.3999Z" />
    <path d="M8.96003 23.9999C8.96003 23.6799 8.96003 18.8799 8.96003 18.5599C8.96003 18.2399 9.28003 17.9199 11.52 17.9199C13.76 17.9199 14.72 19.8399 16 19.8399C17.28 19.8399 18.88 19.8399 19.2 19.8399C19.52 19.8399 19.84 20.1599 19.84 20.9599C19.84 21.7599 19.52 22.0799 19.2 22.0799C18.88 22.0799 14.08 22.0799 13.76 22.0799C13.44 22.0799 13.12 22.2475 13.12 22.5599C13.12 22.8723 13.44 23.0399 13.76 23.0399C14.08 23.0399 16.9144 23.0399 18.56 23.0399C20.2057 23.0399 20.8 21.1199 21.28 20.6399C21.76 20.1599 23.04 19.8399 24 19.8399C24.96 19.8399 26.24 20.1599 26.24 21.1199C26.24 22.0799 18.56 26.2399 15.84 26.2399C13.12 26.2399 8.96003 24.3199 8.96003 23.9999Z" />
    <path d="M4.16003 24.6399C4.16003 24.9599 4.48003 25.2799 4.80003 25.2799C5.12003 25.2799 6.72003 25.2799 7.04003 25.2799C7.36003 25.2799 7.68003 24.9599 7.68003 24.6399C7.68003 24.3199 7.68003 18.0799 7.68003 17.5999C7.68003 17.1199 7.52003 16.9599 7.04003 16.9599C6.56003 16.9599 5.28003 16.9599 4.80003 16.9599C4.32003 16.9599 4.16003 17.1199 4.16003 17.5999C4.16003 18.0799 4.16003 24.3199 4.16003 24.6399Z" />
</svg>