<svg width="32" height="32" viewBox="0 0 32 32" fill="currentColor" xmlns="http://www.w3.org/2000/svg">
    <path d="M15.2933 5.12124C15.4808 4.93397 15.735 4.82879 16 4.82879C16.265 4.82879 16.5192 4.93397 16.7067 5.12124L28.2933 16.7079C28.3856 16.8034 28.496 16.8795 28.618 16.9319C28.7401 16.9842 28.8713 17.0117 29.0041 17.0128C29.1369 17.0139 29.2685 16.9885 29.3914 16.9382C29.5143 16.8879 29.6259 16.8136 29.7197 16.7196C29.8136 16.6257 29.8878 16.514 29.938 16.3911C29.9882 16.2682 30.0135 16.1365 30.0123 16.0037C30.011 15.8709 29.9834 15.7397 29.9309 15.6177C29.8785 15.4958 29.8022 15.3854 29.7067 15.2932L18.1213 3.70657C17.8428 3.42799 17.512 3.20701 17.1481 3.05625C16.7841 2.90548 16.394 2.82788 16 2.82788C15.606 2.82788 15.2159 2.90548 14.8519 3.05625C14.488 3.20701 14.1572 3.42799 13.8787 3.70657L2.29201 15.2932C2.19654 15.3855 2.12041 15.4959 2.06806 15.6179C2.01571 15.74 1.98819 15.8712 1.98709 16.004C1.986 16.1368 2.01137 16.2684 2.06171 16.3913C2.11205 16.5142 2.18635 16.6258 2.28029 16.7196C2.37422 16.8135 2.48591 16.8877 2.60883 16.9379C2.73175 16.9881 2.86344 17.0134 2.99622 17.0122C3.129 17.0109 3.2602 16.9833 3.38218 16.9308C3.50416 16.8784 3.61447 16.8021 3.70667 16.7066L15.2933 5.12124Z" />
    <path d="M16 7.24257L26.8787 18.1212C26.9187 18.1612 26.9587 18.1986 27 18.2359V26.4999C27 27.8799 25.88 28.9999 24.5 28.9999H20C19.7348 28.9999 19.4804 28.8946 19.2929 28.707C19.1054 28.5195 19 28.2651 19 27.9999V21.9999C19 21.7347 18.8946 21.4803 18.7071 21.2928C18.5196 21.1053 18.2652 20.9999 18 20.9999H14C13.7348 20.9999 13.4804 21.1053 13.2929 21.2928C13.1054 21.4803 13 21.7347 13 21.9999V27.9999C13 28.2651 12.8946 28.5195 12.7071 28.707C12.5196 28.8946 12.2652 28.9999 12 28.9999H7.5C6.83696 28.9999 6.20108 28.7365 5.73224 28.2677C5.2634 27.7988 5 27.1629 5 26.4999V18.2359C5.04149 18.1988 5.08195 18.1606 5.12134 18.1212L16 7.24257Z" />
</svg>