<svg width="32" height="32" viewBox="0 0 32 32" fill="currentColor" xmlns="http://www.w3.org/2000/svg">
    <path d="M19 14C19 13.2043 18.6839 12.4414 18.1212 11.8787C17.5586 11.3161 16.7956 11 16 11C15.2043 11 14.4414 11.3161 13.8787 11.8787C13.3161 12.4414 13 13.2043 13 14C13 14.7956 13.3161 15.5586 13.8787 16.1212C14.4414 16.6839 15.2043 17 16 17C16.7956 17 17.5586 16.6839 18.1212 16.1212C18.6839 15.5586 19 14.7956 19 14ZM21 14C21 15.3261 20.4732 16.5978 19.5355 17.5355C18.5978 18.4732 17.3261 19 16 19C14.6739 19 13.4022 18.4732 12.4645 17.5355C11.5268 16.5978 11 15.3261 11 14C11 12.6739 11.5268 11.4022 12.4645 10.4645C13.4022 9.52685 14.6739 9 16 9C17.3261 9 18.5978 9.52685 19.5355 10.4645C20.4732 11.4022 21 12.6739 21 14Z" />
    <path d="M16.4805 29.877C16.1812 30.041 15.8188 30.041 15.5195 29.877L16 29L16.4805 29.877ZM25 14C25 11.6131 24.0517 9.32392 22.3639 7.63609C20.6761 5.94827 18.3869 5 16 5C13.6131 5 11.3239 5.94827 9.63609 7.63609C7.94827 9.32392 7 11.6131 7 14C7 18.3945 9.30764 21.907 11.7155 24.3723C12.9131 25.5985 14.1135 26.5421 15.0145 27.1786C15.4117 27.4592 15.7492 27.6784 16 27.8352C16.2508 27.6784 16.5883 27.4592 16.9855 27.1786C17.8865 26.5421 19.0869 25.5985 20.2845 24.3723C22.6924 21.907 25 18.3945 25 14ZM27 14C27 19.1281 24.3076 23.1157 21.7155 25.7697C20.4131 27.1032 19.1135 28.1241 18.1395 28.8122C17.6518 29.1568 17.2433 29.4194 16.9541 29.5975C16.8094 29.6866 16.6943 29.7547 16.6137 29.8014C16.5735 29.8247 16.5418 29.8427 16.5194 29.8553C16.5082 29.8616 16.4992 29.8667 16.4927 29.8703C16.4894 29.8721 16.4867 29.8736 16.4847 29.8747C16.4837 29.8752 16.4827 29.8757 16.482 29.8761C16.4817 29.8763 16.4811 29.8767 16.4811 29.8767L16 29L15.5189 29.8767C15.5189 29.8767 15.5183 29.8763 15.518 29.8761C15.5173 29.8757 15.5163 29.8752 15.5153 29.8747C15.5133 29.8736 15.5106 29.8721 15.5073 29.8703C15.5008 29.8667 15.4918 29.8616 15.4806 29.8553C15.4582 29.8427 15.4265 29.8247 15.3862 29.8014C15.3057 29.7547 15.1906 29.6866 15.0459 29.5975C14.7567 29.4194 14.3482 29.1568 13.8605 28.8122C12.8865 28.1241 11.5869 27.1032 10.2845 25.7697C7.69238 23.1157 5 19.1281 5 14C5 11.0826 6.15897 8.28477 8.22187 6.22187C10.2848 4.15897 13.0826 3 16 3C18.9174 3 21.7152 4.15897 23.7781 6.22187C25.841 8.28477 27 11.0826 27 14Z" />
</svg>