<svg width="32" height="32" viewBox="0 0 32 32" fill="currentColor" xmlns="http://www.w3.org/2000/svg">
    <path fill-rule="evenodd" clip-rule="evenodd" d="M8.48003 22.56C7.84003 21.92 6.72003 11.52 6.72003 11.2C6.72003 10.88 6.08003 11.2 5.76003 11.2C5.44003 11.2 4.16003 10.08 4.16003 9.60005C4.16003 9.12005 4.96003 8.32005 5.44003 8.32005C5.92003 8.32005 6.08003 8.96005 6.56003 8.96005C7.04003 8.96005 10.88 6.08005 13.76 6.08005C16.64 6.08005 19.36 7.84005 19.2 8.00005C19.04 8.16005 17.92 9.44005 17.76 9.60005C17.6 9.76005 16.96 8.32005 13.6 8.32005C10.24 8.32005 8.64003 9.60005 8.48003 10.08C8.32003 10.56 9.76003 20 10.08 20C10.4 20 22.4 7.68005 22.56 7.52005C22.72 7.36005 21.12 6.08005 21.12 5.60005C21.12 5.12005 21.44 4.80005 21.92 4.80005C22.4 4.80005 25.92 4.80005 26.08 4.96005C26.24 5.12005 26.24 8.64005 26.24 9.12005C26.24 9.60005 25.92 9.92005 25.44 9.92005C24.96 9.92005 23.68 8.32005 23.52 8.48005C23.36 8.64005 22.08 9.92005 21.92 10.08C21.76 10.24 24.96 14.4 24.96 17.44C24.96 20.48 22.08 24 22.08 24.48C22.08 24.96 22.72 25.28 22.72 25.76C22.72 26.24 22.08 26.88 21.6 26.88C21.12 26.88 19.84 25.6 19.84 25.28C19.84 24.96 20.16 24.32 19.84 24.32C19.52 24.32 9.12003 23.2 8.48003 22.56ZM20 12C19.84 12.16 11.04 20.64 11.04 20.96C11.04 21.28 19.84 23.04 20.48 22.72C21.12 22.4 22.72 20.48 22.72 17.44C22.72 14.4 20.16 11.84 20 12Z" />
</svg>