<svg width="32" height="32" viewBox="0 0 32 32" fill="currentColor" xmlns="http://www.w3.org/2000/svg">
    <path fill-rule="evenodd" clip-rule="evenodd" d="M16 26.88C7.04005 26.88 4.80005 16.64 4.80005 14.72C4.80005 12.8 4.80005 6.72005 4.80005 6.08005C4.80005 5.44005 5.44005 4.80005 6.40005 4.80005C7.36005 4.80005 24.64 4.80005 25.6 4.80005C26.56 4.80005 26.88 5.44005 26.88 6.08005C26.88 6.72005 26.88 12.8 26.88 14.72C26.88 16.64 24.96 26.88 16 26.88ZM14.4 16C14.72 16 12.32 21.92 12.48 22.08C12.64 22.24 19.2 15.2 19.84 14.4C20.48 13.6 20.32 13.44 19.84 13.44C19.36 13.44 17.44 13.44 17.12 13.44C16.8 13.44 19.2 9.60005 19.52 8.96005C19.84 8.32005 19.68 8.16005 18.88 8.16005C18.08 8.16005 16.48 8.16005 16 8.16005C15.52 8.16005 12.16 14.24 11.84 15.04C11.52 15.84 11.68 16 12.48 16C13.28 16 14.08 16 14.4 16Z" />
</svg>