<svg width="32" height="32" viewBox="0 0 32 32" fill="#fff" xmlns="http://www.w3.org/2000/svg">
    <path d="M9.59957 19.2001C10.2396 19.2001 11.8396 20.8001 11.8396 21.4401C11.8396 22.0801 8 25.9201 6.87961 25.9201C5.75923 25.9201 5.12 25.2801 5.12 24.1601C5.12 23.0401 8.95957 19.2001 9.59957 19.2001Z" fill="#fff" />
    <path fill-rule="evenodd" clip-rule="evenodd" d="M7.35957 14.4001C7.03953 14.0801 7.03949 13.7601 7.67953 13.1201C8.31957 12.4801 8.63953 12.1601 8.95957 12.4801C9.2796 12.8001 11.6795 15.0401 11.8396 15.0401C11.9996 15.0401 20.4795 4.6401 20.7995 4.48014C21.0339 4.36298 25.12 3.84009 25.92 3.84009C26.72 3.84009 26.88 3.84009 27.04 4.00009C27.2 4.16009 27.2 4.64009 27.2 5.12006C27.2 5.60003 26.6761 10.007 26.5596 10.2401C26.3995 10.5601 15.8396 19.0401 15.8396 19.2001C15.8395 19.3601 18.2396 21.7601 18.5596 22.0801C18.8795 22.4001 18.8796 22.7201 18.2396 23.3601C17.5995 24.0001 17.2795 24.3201 16.6396 23.6801C15.9996 23.0401 7.6796 14.7201 7.35957 14.4001ZM14.3996 17.6001C14.0795 17.6001 13.4395 16.9601 13.4396 16.6401C13.4396 16.3201 22.3996 7.20011 22.7196 7.04012C23.0395 6.88014 23.3596 7.04011 23.6796 7.36012C23.9995 7.68014 24.1595 8.00014 23.9996 8.32012C23.8396 8.64011 14.7196 17.6001 14.3996 17.6001Z" fill="#fff" />
</svg>