<svg width="32" height="32" viewBox="0 0 32 32" fill="#fff" xmlns="http://www.w3.org/2000/svg">
    <path d="M9.92 22.3998C9.92 22.0798 9.92 17.2798 9.92 16.9598C9.92 16.6398 10.24 16.3198 12.48 16.3198C14.72 16.3198 15.68 18.2398 16.96 18.2398C18.24 18.2398 19.84 18.2398 20.16 18.2398C20.48 18.2398 20.8 18.5598 20.8 19.3598C20.8 20.1598 20.48 20.4798 20.16 20.4798C19.84 20.4798 15.04 20.4798 14.72 20.4798C14.4 20.4798 14.08 20.6474 14.08 20.9598C14.08 21.2723 14.4 21.4398 14.72 21.4398C15.04 21.4398 17.8744 21.4398 19.52 21.4398C21.1656 21.4398 21.76 19.5198 22.24 19.0398C22.72 18.5598 24 18.2398 24.96 18.2398C25.92 18.2398 27.2 18.5598 27.2 19.5198C27.2 20.4798 19.52 24.6398 16.8 24.6398C14.08 24.6398 9.92 22.7198 9.92 22.3998Z" />
    <path d="M5.12 23.0398C5.12 23.3598 5.44 23.6798 5.76 23.6798C6.08 23.6798 7.68 23.6798 8 23.6798C8.32 23.6798 8.64 23.3598 8.64 23.0398C8.64 22.7198 8.64 16.4798 8.64 15.9998C8.64 15.5198 8.48 15.3598 8 15.3598C7.52 15.3598 6.24 15.3598 5.76 15.3598C5.28 15.3598 5.12 15.5198 5.12 15.9998C5.12 16.4798 5.12 22.7198 5.12 23.0398Z" />
    <path fill-rule="evenodd" clip-rule="evenodd" d="M18.72 14.8798C16.64 14.8798 16 14.3998 14.88 13.2798C13.76 12.1598 13.44 11.1998 13.44 9.75983C13.44 8.31983 14.0773 6.08006 15.52 5.59983C16 5.44006 15.2796 7.03983 16.32 7.03983C17.3604 7.03983 16.16 3.68045 16.32 2.88045C16.3608 2.67654 16.64 2.56006 16.96 2.56006C18.56 2.56006 22.08 5.21941 22.08 8.95983C22.08 9.91983 23.04 8.31961 23.68 7.99983C24.32 7.68005 24.64 14.8801 18.72 14.8798ZM16.32 11.3598C16.32 12.48 17.28 13.4397 18.72 13.4398C20.16 13.44 20.8 12.48 20.8 11.3598C20.8 10.2397 20.16 9.6 19.84 9.27983C19.52 8.95966 19.2 10.24 18.88 9.91983C18.24 8.95983 19.84 7.6799 19.2 7.67983C17.6 7.67966 16.32 10.2397 16.32 11.3598Z" />
</svg>