<svg width="32" height="32" viewBox="0 0 32 32" fill="currentColor" xmlns="http://www.w3.org/2000/svg">
    <path d="M12.5353 4.0039C14.0749 1.33724 17.9252 1.33724 19.4647 4.0039L19.4649 4.00422L29.2702 21.0016L29.2704 21.0017C30.8079 23.6681 28.8832 26.9998 25.8068 26.9998H6.19332C3.11594 26.9998 1.19029 23.6682 2.73004 21.0012L12.5352 4.00422L12.5353 4.0039ZM17.6958 4.94234C16.9031 3.67086 15.0251 3.69141 14.2674 5.0039L4.46222 22.0009L4.46207 22.0012C3.69251 23.3342 4.65476 24.9998 6.19332 24.9998H25.8068C27.3435 24.9998 28.3067 23.3343 27.5377 22.0008V22.0006L17.7327 5.0039L17.6958 4.94234ZM16.0094 19.9998C16.5617 19.9999 17.0094 20.4476 17.0094 20.9998V21.0106C17.0094 21.5629 16.5617 22.0106 16.0094 22.0106H16C15.4478 22.0106 15.0001 21.5629 15 21.0106V20.9998C15.0001 20.4476 15.4478 19.9998 16 19.9998H16.0094ZM15 16.9998V11.9998C15.0001 11.4476 15.4478 10.9998 16 10.9998C16.5523 10.9998 17 11.4476 17 11.9998V16.9998C17 17.5521 16.5523 17.9998 16 17.9998C15.4478 17.9998 15 17.5521 15 16.9998Z" />
</svg>